<?xml version="1.0" encoding="UTF-8"?>
<svg id="_レイヤー_2" data-name="レイヤー 2" xmlns="http://www.w3.org/2000/svg" viewBox="0 0 1073.47 971.34">
  <defs>
    <style>
      .cls-1 {
        fill: #f7f5f8;
      }

      .cls-2 {
        fill: #e9e3eb;
      }

      .cls-3 {
        fill: #e8e2ea;
      }

      .cls-4 {
        fill: #febdbd;
      }

      .cls-5 {
        fill: #6b946e;
      }

      .cls-6 {
        fill: #b3afb5;
      }

      .cls-7 {
        fill: #e0dbe2;
      }

      .cls-8 {
        fill: #e2dde4;
      }

      .cls-9 {
        fill: #e1dce3;
      }

      .cls-10 {
        fill: #242424;
      }

      .cls-11 {
        fill: #222;
      }

      .cls-12 {
        fill: #232223;
      }
    </style>
  </defs>
  <g id="_レイヤー_1-2" data-name="レイヤー 1">
    <g>
      <g>
        <path class="cls-1" d="M0,547.18H1c0,18,0,36,0,54H0v-54Z"/>
        <path class="cls-2" d="M1,601.18c0-18,0-36,0-54,0-2,0-4,0-5.99,1.5-1.31,.95-3.07,.96-4.66,.05-6.78,.02-13.57,.02-20.35,1.01-19.88,1.53-39.8,3.19-59.62,1.61-19.26,2.87-38.65,7.85-57.47,4.09-15.45,10.13-29.92,21.89-41.33,9.93-9.64,21.77-14.56,35.64-15.7,19.99-1.65,40.07-2.06,60-4.06,17.9-1.8,36.04-2.89,53.11-9.59,1.24-.49,2.53-.85,3.72-1.43,8.84-4.29,9.45-5.79,6.46-14.89-4.84-14.73-12.45-28.28-18.3-42.58-5.27-12.88-7.32-26.5-9.43-40.06-2.16-13.88-3.49-27.89-4.97-41.87-.44-4.12-.09-8.32-.18-12.49-.33-15.89-.78-31.84,1.17-47.62,1.91-15.4,1.72-31.12,6.66-46.09,5.29-16.03,14.82-28.82,28.99-38.08,4.01-2.62,7.74-5.25,10.46-9.57,3.03-4.82,7.99-7.84,13.57-9.66,15.04-4.88,30.59-7.38,46.12-9.79,17.15-2.66,34.38-4.87,51.62-6.92,9.37-1.11,18.82-1.52,28.24-2.17,19.34-1.34,38.67-2.81,58.02-3.85,8.78-.47,17.6-.91,26.37-.99,37.66-.34,75.33-.57,112.99,.04,18.12,.29,36.29,.02,54.37,1.06,14.32,.83,28.61,.1,42.89,.8,22.58,1.1,45.17,1.43,67.75,2.12,16.25,.5,32.53,1.06,48.75,1.99,33.53,1.92,67.06,2.81,100.64,3.07,12.89,.1,25.77,2.5,36.82,10.4,8.54,6.1,13.53,14.97,18.68,23.67,20.73,34.98,33.56,72.84,40.98,112.68,2.61,13.99,5.89,27.87,8.31,41.89,3.55,20.64,6.21,41.43,.55,62.11-3.65,13.34-11.89,23.78-21.98,33.16-18.94,17.62-42.8,24.17-66.7,30.77-10.9,3.01-21.57,6.67-32.16,10.6-1.81,.67-3.47,1.75-5.13,3.1,6.66-.23,13.1,.99,19.61,1.42,17.68,1.17,35.35,2.56,53.02,3.86,1,.07,2,.06,3,.09,14.96,.34,29.93,.37,44.87,1.11,20.69,1.03,41.37,2.3,62.01,4.08,9.18,.79,18.47,1.18,27.43,4.19,16.17,5.43,22.96,16.15,23.78,31.63,1.23,23.35,.85,46.84,.1,70.23-.44,13.91-.48,27.9-1.88,41.75-1.67,16.43-1.77,33.08-6.97,49.05-5.8,17.8-18.28,27.48-36.23,30.97-15.34,2.98-30.66,1.14-46.02,.23-9.11-.54-18.16-1.44-27.24-2.21-15.5-1.32-30.91-3.35-46.32-5.47-2.78-.38-5.57-.75-8.35-1.13-1.72-.24-2.64,.54-2.35,2.23,1.93,11.28,2.25,22.71,3.27,34.07,.46,5.13,.31,10.31,.32,15.47,.02,15.63,.37,31.28-1.02,46.87-3.36,37.86-10.9,74.77-25.58,109.98-9.41,22.56-22.41,42.83-38.83,61.08-18.84,20.95-41.08,37.54-64.45,52.87-13.78,9.04-27.98,17.33-42.67,24.75-36.38,18.38-74.84,30.87-114.4,40.27-21.12,5.02-42.38,9.03-64.02,11.16-13.2,1.3-26.41,2.13-39.64,2.97-31.24,2-62.52,2.47-93.75,1.58-18.41-.52-36.9,.26-55.26-1.8-20.38-2.29-40.65-5.42-60.85-9.01-21.7-3.85-43.08-9.16-64.55-14.02-14.37-3.25-28.06-8.59-38.74-19.27-12.57-12.57-18.72-28.36-21.21-45.69-3.53-24.66-2.12-49.5-1.8-74.24,.19-14.85,2.47-29.67,3.69-44.52,.81-9.91,1.22-19.85,2.13-29.75,1.04-11.36,2.7-22.67,3.56-34.04,.58-7.62,.62-15.33,.17-22.95-.34-5.77-3.57-8.25-9.77-8.38-13.95-.3-27.87,.46-41.76,1.83-6.27,.62-12.59,.56-18.88,.9-22.56,1.2-45.11,3.16-67.74,2.19-7.69-.33-15.07-2.17-21.93-5.81-10.94-5.82-15.65-16.04-18.43-27.22-3.08-12.41-3.81-25.18-4.26-37.93ZM596.06,132.3c6.34-1.28,12.85-1.75,18.99-4.02,1.42-.53,3.32-.88,3.32-2.52,0-2.06-2.11-2.3-3.7-2.51-5.76-.76-11.55-1.37-17.31-2.09-1.07-.13-2.9,.72-2.5-1.77,.66-4.1,.8-8.31,1.85-12.3,.84-3.16,2.59-5.84,6.81-5.96,3.09-.09,6.16-1.24,9.23-1.97,1.43-.34,3.21-.56,3.21-2.48,0-1.95-1.86-2.1-3.25-2.43-10.89-2.58-21.94-4-33.12-3.56-3.56,.14-4.01-1.09-3.34-3.88,1.23-5.14,2.62-10.24,3.72-15.4,.5-2.32,.61-5.06-2.68-5.38-3.37-.33-3.54,2.34-3.52,4.77,.05,5.49,0,10.99,.32,16.47,.18,3.03-.83,3.91-3.79,4.2-10.42,1.03-20.8,2.48-31.29,2.72-2.21,.05-4.77-.02-4.93,2.9-.17,3.07,2.41,2.94,4.62,3.12,7.79,.65,15.57,1.37,23.35,2.09,1.39,.13,3.2-.32,2.48,2.33-1.43,5.26-1.97,11.11-3.91,15.76-2.33,5.6-10.12,1.47-15.16,3.5-1.01,.41-2.31,.06-3.47,.14-1.71,.13-4.18-.66-4.47,1.87-.31,2.69,2.19,2.31,3.92,2.56,17.1,2.42,34.12,5.77,51.55,4.67-.11,.28-.14,.56-.06,.85-8.55,1.68-16.18,6.04-24.47,8.42-4.72,1.35-9.65,6.04-14.57-.82,0,2.18,.43,3.68-.07,4.73-2.86,5.94-5.49,11.82-2.31,18.5,.15,.32-.15,.95-.39,1.34-2.76,4.53,.2,5.2,3.66,5.26,7.49,.11,15-.18,22.45,.76,1.75,.22,4.59-1.27,4.63,2.63,.04,3.68-2.37,3.25-4.68,3.44-15.41,1.28-30.81,2.6-46.22,3.89-1.36,.11-2.67,.14-3.33,1.65-.49,1.11-.04,1.95,.73,2.65,1.26,1.14,2.85,.7,4.31,.69,14.16-.15,28.3,.05,42.45,.78,4.97,.26,6.12,1.89,5.7,6.5-.71,7.82,1.14,15.2,5.28,21.93,.7,1.14,1.56,2.31,3.16,1.88,1.62-.44,1.63-1.87,1.71-3.22,.47-7.5,.7-15.04-1.18-22.35-.98-3.83,.17-4.35,3.67-4.38,13.15-.13,26.3-.57,39.45-.96,1.02-.03,2.64,.63,2.9-1,.23-1.44-1.31-1.68-2.34-2.1-4.14-1.71-8.34-3.21-12.76-4.1-10.02-2.01-20.16-2.31-30.33-2.02-2.69,.08-3.35-.99-3.5-3.47-.16-2.65,1.16-2.93,3.24-3.16,4.78-.53,9.55-1.21,14.3-1.99,3.59-.59,3.53-.69,3.29-4.07-.04-.57,.46-1.23,.81-1.78,.79-1.27,1.69-2.47,2.47-3.75,9.52-15.63,4.15-25.88-13.9-26.58-.35-.32-.69-.65-1.04-.97Zm202.85,34.91c.38-.02,.77-.04,1.15-.06,1.91,.68,3.11-.06,4.03-1.79,1.24-2.35,2.63-4.62,3.95-6.92,8.76-15.31,7.05-22.98-7.46-33.27-2.03-1.44-4.17-2.76-6.33-3.99-10.99-6.26-23.09-8.33-35.46-9.14-3.07-.2-3.88-.85-3.11-4.16,3.12-13.45,5.88-26.98,8.76-40.49,.58-2.74,.22-5.31-2.94-5.85-2.84-.49-4.06,1.68-4.61,4.19-.29,1.3-.62,2.59-.93,3.88-3.02,12.78-6.05,25.57-9.05,38.36-.43,1.85-.69,3.5-3.32,3.37-15.34-.78-30.57,1.57-45.88,1.89-4,.08-8.25,1.1-6.51-5.59,.5-1.9-.8-3.6-3.15-3.56-2.3,.04-3.15,1.54-3.22,3.63-.05,1.33-.08,2.67-.04,4,.35,11.3-.73,22.46-2.54,33.62-.44,2.69-2.22,5.92-.26,8.83,1.06-2.69,1.56-5.39,1.99-8.11,1.48-9.43,3.06-18.84,5.49-28.09,.52-1.98,.98-2.59,3.61-2.27,15.7,1.91,30.91,6.32,46.54,8.52,2.52,.35,3.38,1.04,2.64,3.82-2.24,8.35-4.29,16.76-6.11,25.22-.59,2.73-1.98,3.01-4.2,2.83-7.13-.56-14.28-.92-21.4-1.6-7.27-.69-14.52-1.69-21.78-2.49-1.32-.15-2.88-.15-3.14,1.62-.23,1.53,.64,2.45,2.23,2.73,1.14,.19,2.24,.6,3.37,.86,12.63,2.89,25.24,5.87,37.91,8.58,3.13,.67,3.92,1.55,3.17,4.91-5.31,23.56-7.31,47.62-10.17,71.54-.13,1.07-.61,2.47,1.05,2.88,1.73,.43,1.78-.98,2.07-2.08,.93-3.5,1.93-6.99,2.77-10.51,4.71-19.89,9.43-39.78,14.02-59.7,.67-2.89,1.59-3.76,4.7-2.98,4.17,1.05,8.53,1.65,12.83,1.86,12.95,.62,25.92,1.91,38.85-.28,1.25-.21,2.98,.06,3.39-1.56,.58-2.33-2.29-1.33-2.88-2.64Zm-238.89,153.57c10.01-14.69,8.62-29.4,2.43-44.33-1.02-2.46-1.81-5.01-2.62-7.55-5.79-18.05-9.55-36.12-.72-54.37,.46-.96,1.54-2.15,.19-3.11-1.44-1.01-2.47,.06-3.33,1.15-2.58,3.27-5.13,6.55-7.71,9.81-8.69,10.99-11.51,23.34-9,37.1,1.47,8.05,3.18,16.05,5.92,23.72,4.12,11.52,2.04,22.24-2.78,32.92-1.28,2.83-2.96,3.87-6.11,3.81-50.16-.83-99.26,6.34-147.65,19.35-16.94,4.55-31.11,12.23-42.34,26.31-15.65,19.63-17.51,39.2-3.62,60.06,4.9,7.35,9.89,14.62,13.78,22.59,3.95,8.09,5.81,16.59,5.57,25.61-.08,2.81-.7,4.12-3.9,4.22-49.48,1.62-98.71,6.7-148.01,10.87-2.41,.2-4.42,.77-4.52,3.54-.09,2.74,1.84,3.61,4.25,3.87,14.57,1.55,29.12,3.27,43.71,4.66,33.57,3.22,67.24,2.95,100.9,2.33,3.92-.07,4.62,.82,4.01,4.75-5.17,33.55-22.09,60.66-45.58,84.24-9.17,9.21-18.84,17.94-27.68,27.45-23.04,24.78-41.97,52.21-51.63,85.09-7.58,25.78-8.17,52.21-6.17,78.79,1.92,25.52,7.83,49.94,19.43,72.89,9.65,19.1,23.88,33.4,43.05,43.01,14.02,7.03,28.86,11.18,44.22,13.63,44.09,7.04,88.38,5.83,132.64,2.51,47.79-3.59,94.64-13.29,141.33-23.64,70.76-15.68,130.63-50.31,179.99-103.4,37.91-40.77,55.61-88.54,51.61-144.24-1.07-14.95-1.61-29.95-2.52-44.91-2.1-34.6-4.36-69.19-12.8-103-.78-3.13-.07-4.09,3.18-4.13,12.66-.17,25.32-.84,37.98-.86,46.67-.06,93.27-2.82,139.93-3.26,7.57-.07,14.95-1.36,21.58-5.34,6.79-4.07,7.49-8.8,2.01-14.6-5.65-5.99-12.91-8.69-20.96-9.34-14.47-1.17-28.98-1-43.47-.56-48.96,1.49-97.92,3.06-146.88,4.72-3.48,.12-5.28-.76-6.81-4.07-11.99-25.95-28.81-48.35-50.71-66.72-28.62-24.01-61.33-40.72-97.04-51.1-33.45-9.73-67.67-16.22-103.13-20.48Zm-382.58,53.84c-8.53,.27-16.94,1.46-25.29,3.08-23.21,4.5-45.77,11.66-68.82,16.84-11.49,2.58-23.04,4.84-34.56,7.29-1.37,.29-3.35,.32-2.77,2.57,.42,1.59,1.77,1.43,3.25,1.31,20.06-1.6,40.13-3.09,60.2-4.64,21.75-1.68,43.63-1.39,65.29-4.43,2.62-.37,5.32-.14,7.98-.18,3.66-.06,5.6,1.79,5.77,5.39,.1,2.15,.12,4.34-.14,6.47-1.41,11.94-4.33,23.54-7.88,35-1.23,3.96-2.5,7.9-3.8,11.83-.56,1.69-1.79,3.78,.26,4.8,2.02,1,2.62-1.46,3.47-2.74,1.84-2.76,3.62-5.58,5.31-8.43,8-13.48,14.9-27.52,20.47-42.14,6.05-15.88-2.41-29.3-19.28-31.46-3.13-.4-6.31-.38-9.47-.55ZM336.35,113.41c-.55,.06-1.11,.11-1.66,.17,0,8.62,.63,17.29-.19,25.83-.74,7.74,.26,14.88,3.12,21.95,2.38,5.88,5.19,11.56,8.48,16.95,1.73,2.83,1.78,5.3,.92,8.43-5.15,18.72-13.29,36.17-22.12,53.35-.64,1.25-2.12,2.82-.58,3.98,1.59,1.19,2.59-.71,3.59-1.72,12.28-12.34,23.89-25.16,29.97-41.91,.72-1.97,1.3-3.03,3.24-.98,10.3,10.9,24.11,15.7,37.43,21.31,1.21,.51,2.82,1.91,4.07,.43,1.43-1.69-.16-3.06-1.15-4.33-6.87-8.83-14.41-17.05-22.93-24.31-4.34-3.7-8.2-7.79-11.46-12.48-1.22-1.75-1.71-3.41-1.15-5.58,4.31-16.48,5.99-33.39,8-50.25,.79-6.61,1.81-13.2,2.55-19.81,.26-2.3-.51-4.47-3.12-4.99-2.59-.52-4.01,1.11-4.79,3.37-.27,.78-.44,1.6-.62,2.41-2.35,10.9-4.64,21.81-7.07,32.69-1.6,7.17-3.13,14.37-6.05,21.58-10.45-14.05-15.24-29.76-18.48-46.11Zm578.12,78.16c-.28-6.11-.45-13.27-.96-20.41-2.62-36.71-11.3-71.83-27.75-104.89-.81-1.64-1.55-3.76-3.9-2.89-2.21,.82-1.66,2.71-1.22,4.65,7.36,32.46,13.25,65.19,16.8,98.28,2.57,24.02,3.59,48.11-1.33,72.11-2.31,11.27-5.34,22.27-9.38,33.01-.58,1.55-1.73,3.44-.15,4.45,1.56,1,2.49-1.18,3.4-2.19,6.41-7.08,11.67-14.9,15.27-23.81,7.43-18.4,9.23-37.68,9.21-58.31Zm-649.79,38.9c14.82,.4,30.32-2.61,42.07-8.25,1.47-.71,4.6-1.55,2.8-3.45-2.12-2.24-.52-2.95,.33-4.33,5.22-8.54,7.08-17.88,6.25-27.75-.42-4.98-2.33-9.69-6.41-12.58-12.5-8.85-26.01-15.11-41.89-12.3-12.45,2.2-24.5,6.11-36.63,9.59-7.16,2.06-6.84,2.25-5.47,10.1,1.61,9.19,5.13,17.47,9.99,25.36,3.48,5.65,6.88,11.41,9.64,17.43,2.18,4.75,4.51,7.66,10.34,6.3,2.84-.66,5.97-.12,8.97-.11Zm-69.2-70.81c.36,17.16,1.48,34.27,4.58,51.18,3.14,17.14,7.85,33.7,19.14,47.62,5.11,6.3,11.48,11.05,18.17,15.44,.85,.56,1.93,1.59,3.08,.39,1.18-1.23,.14-2.09-.57-2.98-.84-1.03-1.67-2.08-2.57-3.06-9.83-10.68-15.92-23.27-18.88-37.4-3.65-17.46-5.03-35.25-7.33-52.9-2.26-17.34-4.24-34.73-3.53-52.26,.94-23.3,4.35-46.32,8.08-69.3,.31-1.9,.75-3.93-1.68-4.49-2.54-.58-2.83,1.49-3.2,3.38-1.75,8.78-3.57,17.55-5.37,26.32-5.28,25.77-10.41,51.56-9.92,78.06Zm269.81,27.76c0,8.82-.02,17.64,.02,26.46,0,1.42-.2,3.39,2.04,3.23,1.76-.13,1.54-1.82,1.66-3.14,.39-4.3,.7-8.6,1.26-12.88,3.21-24.25,4.49-48.66,6-73.05,.9-14.61,1.98-29.2,2.91-43.81,.12-1.83,.15-3.43,2.64-3.03,4.74,.76,9.62,1.03,14.01,3.2,3.86,1.91,6.79,8.46,4.88,10.97-7.17,9.43-6.7,19.02,.15,28.04,4.5,5.93,5.72,11.96,4.68,19.1-.55,3.79-2.01,6.99-3.82,10.15-1.73,3.02-3.67,5.92-5.47,8.9-.53,.87-.8,1.87-.12,2.81,.85,1.17,1.7,.34,2.59-.03,4.28-1.77,8.59-3.5,12.87-5.28,4.84-2.01,7.72-5.6,8.61-10.79,2.03-11.86,1.83-23.2-6.88-32.88-3.47-3.85-3.42-7.66,.14-11.99,7.27-8.87,5.86-16.11-3.66-22.61-3.67-2.5-7.59-4.05-12.12-3.91-4.64,.14-9.31-.2-13.87,1.1-2.96,.84-4.43-.21-3.81-3.46,.09-.49,.03-1,.07-1.49,.18-1.97,.03-3.88-2.43-4.12-2.55-.25-2.84,1.94-3.15,3.69-.41,2.28-.44,4.63-.8,6.93-5.67,35.74-7.62,71.75-8.38,107.89ZM123.18,438.4c-.05-3.6-1.31-5.52-3.64-5.92-2.69-.46-4.54,.84-5.54,3.23-.83,1.99-1.43,4.08-2.06,6.14-10.69,34.99-21.51,69.91-36.91,103.25-9.61,20.8-16.77,42.57-23.29,64.54-.28,.94-.61,1.88-.76,2.85-.13,.82-.07,1.77,.82,2.16,1.22,.54,1.84-.4,2.3-1.27,.69-1.31,1.3-2.68,1.87-4.05,8.77-20.98,17.53-42,28.24-62.06,17.76-33.28,30.15-68.4,38.17-105.17,.32-1.46,.62-2.92,.79-3.7ZM824.01,251.39c5.51,.18,10.54-1.35,15.08-4.41,9.76-6.58,11.07-18.47,3.13-27.19-2.89-3.17-6.41-5.34-10.5-6.42-7.58-2-15.44-2.14-23.17-3.17-1.3-.17-3.32-.29-3.35,1.25-.06,3.11-2.64,4-4.15,5.81-3.06,3.66-4.3,7.83-3.62,12.53,1.83,12.58,12.97,21.61,26.58,21.58ZM304.72,86.1c-10.35,.5-19.9-1.06-29.52-1.03-2.99,.01-4.21-.85-4.01-3.98,.24-3.82,.07-7.66,.08-11.49,0-3-.24-6.15-4.23-5.89-3.62,.23-3.71,3.22-3.42,6.04,.37,3.64,.69,7.29,1.26,10.9,.42,2.63-.31,3.54-3.07,3.38-7.31-.44-14.63-.67-21.95-.91-3.86-.13-7.14,.92-7.45,5.47-.24,3.55,3.06,5.6,8.06,5.22,5.31-.4,10.61-.95,15.92-1.35q10.05-.75,10.48,9.39c.64,15.27,2.28,30.49,2.27,45.81,0,3.52,.88,7.04,1.36,10.57,.5-.06,1-.11,1.5-.17,0-1.76,.05-3.53,0-5.29-.6-19.3-1.31-38.6-.81-57.92,.06-2.25-.2-4.29,3.05-4.53,8.43-.62,16.78-2.21,25.28-2.18,1.49,0,3.31,.78,5.21-2.03Zm16.5,22.01c21.59-3.13,42.76-8.04,63.41-15.1,1.06-.36,2.41-1,1.91-2.42-.54-1.5-2-1.41-3.41-1.25-5.6,.66-11.2,1.38-16.82,1.83-15.86,1.29-30.91,6.3-46.26,9.94-2.28,.54-3.48,2.08-3.01,4.4,.44,2.15,2.13,2.81,4.18,2.58Zm-17.29,12.92c3.01,.15,3.11-2.02,3.74-3.28,7.25-14.61,13.48-29.78,24.34-42.32,1.39-1.61,2.01-3.8-.17-5.22-2.12-1.38-3.79-.13-4.85,1.88-1.08,2.05-2.12,4.13-3.13,6.22-6.78,14.03-12.26,28.66-19.93,42.72Z"/>
        <path class="cls-1" d="M2,516.18c0,6.78,.03,13.57-.02,20.35-.01,1.59,.54,3.35-.96,4.66,0-6.78-.03-13.57,.02-20.35,.01-1.59-.54-3.36,.97-4.65Z"/>
        <path class="cls-11" d="M560.03,320.78c35.47,4.26,69.68,10.76,103.13,20.48,35.71,10.38,68.42,27.09,97.04,51.1,21.9,18.37,38.72,40.77,50.71,66.72,1.53,3.31,3.33,4.19,6.81,4.07,48.96-1.67,97.92-3.23,146.88-4.72,14.49-.44,28.99-.61,43.47,.56,8.06,.65,15.31,3.35,20.96,9.34,5.47,5.8,4.77,10.53-2.01,14.6-6.63,3.98-14.01,5.27-21.58,5.34-46.66,.44-93.26,3.2-139.93,3.26-12.66,.02-25.32,.68-37.98,.86-3.25,.04-3.96,1-3.18,4.13,8.44,33.81,10.7,68.4,12.8,103,.91,14.97,1.45,29.96,2.52,44.91,4,55.7-13.7,103.47-51.61,144.24-49.36,53.09-109.23,87.73-179.99,103.4-46.69,10.34-93.54,20.04-141.33,23.64-44.26,3.33-88.55,4.53-132.64-2.51-15.36-2.45-30.19-6.6-44.22-13.63-19.17-9.61-33.4-23.91-43.05-43.01-11.6-22.96-17.51-47.38-19.43-72.89-2-26.59-1.4-53.01,6.17-78.79,9.66-32.88,28.59-60.31,51.63-85.09,8.84-9.51,18.51-18.25,27.68-27.45,23.49-23.58,40.41-50.69,45.58-84.24,.61-3.93-.1-4.82-4.01-4.75-33.66,.62-67.33,.88-100.9-2.33-14.58-1.4-29.14-3.12-43.71-4.66-2.42-.26-4.34-1.12-4.25-3.87,.09-2.76,2.1-3.33,4.52-3.54,49.3-4.17,98.53-9.25,148.01-10.87,3.2-.1,3.83-1.42,3.9-4.22,.24-9.02-1.61-17.52-5.57-25.61-3.89-7.96-8.88-15.24-13.78-22.59-13.89-20.85-12.03-40.43,3.62-60.06,11.23-14.08,25.4-21.76,42.34-26.31,48.39-13.01,97.49-20.17,147.65-19.35,3.15,.05,4.83-.98,6.11-3.81,4.81-10.68,6.89-21.4,2.78-32.92-2.74-7.67-4.45-15.67-5.92-23.72-2.52-13.76,.3-26.11,9-37.1,2.58-3.26,5.13-6.55,7.71-9.81,.86-1.09,1.89-2.16,3.33-1.15,1.36,.95,.27,2.15-.19,3.11-8.83,18.25-5.07,36.33,.72,54.37,.81,2.53,1.6,5.09,2.62,7.55,6.19,14.93,7.58,29.65-2.43,44.33Zm-136.79,571.08c-17.22-6.53-26.5-18.49-31.5-34.22-3.29-10.36-5.02-21.02-5.75-31.84-.87-12.79-1.46-25.59-2.27-38.38-1.76-27.68-1.71-55.23,5.13-82.37,3.9-15.49,7.65-31,7.23-47.18-.08-3.18-1.05-4.73-4.16-5.59-15.62-4.31-29.48-12.21-42.54-21.59-4.05-2.91-7.87-6.15-11.77-9.26-1.06-.85-2.13-1.9-1.38-3.38,.77-1.53,2.34-1.05,3.57-.83,1.79,.32,3.53,.93,5.28,1.45,7.81,2.31,15.54,4.91,23.55,6.52,16.34,3.26,32.99,4.05,49.47,6.22,15.51,2.04,31.06,3.41,46.67,.82,26.33-4.37,45.28-18.09,55.46-43.26,7.12-17.6,14.47-35.1,15.71-54.39,.16-2.47,1.5-4.13,4.03-4.28,2.74-.16,4.59,1.52,4.91,4.06,1.64,13.05,3.22,26.11,1.77,39.3-.14,1.31-.81,3.25-.21,3.83,4.51,4.36,1.63,8.93,.86,13.54-1.73,10.33-.1,18.96,9.48,25.78,16.58,11.82,34.8,18.64,54.78,21.27,31.05,4.09,62.35,4.83,93.54,6.92,23.98,1.61,46.96,7.08,69.11,16.25,1.51,.63,4.13,.68,3.68,3.27-.47,2.7-2.94,1.61-4.55,1.62-21.14,.13-42.28,.24-63.41,.18-3.67,0-4.69,.72-4.4,4.82,.88,12.62,.91,25.27-.16,37.93-1.53,18.08-4.31,36-6.48,53.99-2.73,22.66-6.19,45.18-15.98,66.16-.98,2.1-2.57,4.1-2.51,7.01,1.06-.41,1.7-.59,2.27-.89,1.92-1,3.82-2.03,5.72-3.08,18.27-10.11,35.41-21.77,51.11-35.62,18.81-16.6,36.03-34.45,49.53-55.82,16-25.33,22.93-53.12,22.56-82.62-.29-23.27-2.37-46.51-3.51-69.77-1.13-23.11-3.35-46.09-7.08-68.93-6.47-39.63-23.98-73.62-52.9-101.33-23.57-22.58-51.8-38.28-82.46-48.63-36.62-12.35-74.49-20.01-113.07-23.43-29.65-2.63-59.18-.37-88.68,2.78-18.92,2.02-37.36,6.34-55.82,10.62-9.86,2.29-19.99,4.07-29.08,8.79-8.59,4.45-15.86,10.21-17.93,20.68-2.16,10.97-.04,20.96,4.7,30.91,11.95,25.11,20.07,50.98,16.42,79.49-1.76,13.73-3.51,27.36-7.62,40.61-7.35,23.69-20.44,44-37.02,62.15-14.04,15.38-30.22,28.72-43.68,44.65-23.07,27.3-40.82,57.02-43.19,94-2.01,31.26,.1,61.87,11.85,91.26,5.62,14.05,12.82,27.09,25.13,36.62,15.93,12.33,34.58,17.54,54.02,20.42,26.58,3.94,53.34,4.16,81.55,2.79Zm108.32-274.35c-.14,.07-.47,.16-.67,.37-.45,.48-.86,1.02-1.26,1.55-14.21,18.6-32.88,30.33-55.5,35.91-22.29,5.5-44.65,3.91-67,.5-5.64-.86-5.84-.89-4.79,4.63,2.32,12.22,2.74,24.58,1.38,36.83-3.27,29.62-2.86,59.2-.52,88.82,1.25,15.78,1.95,31.59,3.57,47.34,2.24,21.79,11.44,40.42,24.86,57.31,1.12,1.41,2.32,1.03,3.55,.93,12.28-1,24.59-1.79,36.83-3.14,39.12-4.31,77.58-12.42,116-20.69,26.25-5.65,52.13-12.53,76.71-23.64,2.43-1.1,3.98-2.16,4.17-5.32,2.14-35.5,8.21-70.43,15.58-105.16,4.42-20.82,10-41.41,11.6-62.77,.33-4.44-1.04-5.16-5.03-5.26-16.32-.4-32.64-.98-48.94-1.83-17.79-.93-35.72-1.31-53.07-5.81-24.13-6.26-45.9-16.27-57.48-40.58Z"/>
        <path class="cls-11" d="M798.92,167.21c.59,1.31,3.46,.31,2.88,2.64-.4,1.62-2.13,1.34-3.39,1.56-12.93,2.19-25.9,.9-38.85,.28-4.3-.21-8.66-.81-12.83-1.86-3.11-.78-4.04,.09-4.7,2.98-4.59,19.92-9.31,39.81-14.02,59.7-.84,3.53-1.84,7.01-2.77,10.51-.29,1.09-.33,2.51-2.07,2.08-1.66-.41-1.18-1.81-1.05-2.88,2.86-23.92,4.87-47.98,10.17-71.54,.76-3.36-.04-4.24-3.17-4.91-12.67-2.71-25.28-5.69-37.91-8.58-1.13-.26-2.23-.66-3.37-.86-1.59-.27-2.46-1.19-2.23-2.73,.27-1.77,1.82-1.76,3.14-1.62,7.26,.8,14.51,1.8,21.78,2.49,7.12,.68,14.27,1.04,21.4,1.6,2.22,.18,3.62-.1,4.2-2.83,1.82-8.45,3.87-16.86,6.11-25.22,.75-2.79-.12-3.47-2.64-3.82-15.62-2.2-30.84-6.61-46.54-8.52-2.63-.32-3.09,.29-3.61,2.27-2.42,9.25-4.01,18.66-5.49,28.09-.43,2.71-.93,5.41-1.99,8.11-1.96-2.92-.18-6.14,.26-8.83,1.81-11.16,2.89-22.32,2.54-33.62-.04-1.33,0-2.67,.04-4,.07-2.09,.93-3.59,3.22-3.63,2.35-.04,3.64,1.66,3.15,3.56-1.74,6.69,2.51,5.67,6.51,5.59,15.31-.32,30.53-2.66,45.88-1.89,2.62,.13,2.89-1.52,3.32-3.37,2.99-12.79,6.03-25.57,9.05-38.36,.31-1.29,.64-2.58,.93-3.88,.55-2.51,1.78-4.67,4.61-4.19,3.16,.54,3.52,3.12,2.94,5.85-2.88,13.5-5.64,27.04-8.76,40.49-.77,3.31,.04,3.96,3.11,4.16,12.38,.82,24.48,2.88,35.46,9.14,2.17,1.23,4.3,2.55,6.33,3.99,14.51,10.29,16.22,17.96,7.46,33.27-1.32,2.31-2.71,4.57-3.95,6.92-.91,1.73-2.12,2.46-4.03,1.79,.61-3.76,.79-7.65,1.91-11.25,2.57-8.25-1.3-12.96-7.74-17.33-12.25-8.31-26.34-9.68-40.3-11.84-2.71-.42-2.43,1.73-2.74,3.18-1.65,7.81-3.04,15.68-4.85,23.44-.75,3.21,.22,3.85,3.22,4.22,7.59,.94,15.16,2.1,22.66,3.59,8.94,1.78,17.79,4.01,26.68,6.04Z"/>
        <path class="cls-11" d="M177.45,374.63c3.16,.17,6.34,.15,9.47,.55,16.87,2.15,25.33,15.58,19.28,31.46-5.57,14.62-12.47,28.67-20.47,42.14-1.69,2.86-3.47,5.67-5.31,8.43-.85,1.28-1.46,3.74-3.47,2.74-2.06-1.02-.82-3.11-.26-4.8,1.3-3.93,2.58-7.87,3.8-11.83,3.55-11.46,6.47-23.06,7.88-35,.25-2.13,.24-4.32,.14-6.47-.17-3.59-2.11-5.45-5.77-5.39-2.66,.05-5.37-.18-7.98,.18-21.66,3.04-43.54,2.74-65.29,4.43-20.07,1.55-40.14,3.04-60.2,4.64-1.47,.12-2.83,.28-3.25-1.31-.59-2.25,1.4-2.28,2.77-2.57,11.52-2.45,23.08-4.7,34.56-7.29,23.04-5.18,45.61-12.34,68.82-16.84,8.35-1.62,16.75-2.81,25.29-3.08Z"/>
        <path class="cls-11" d="M336.35,113.41c3.24,16.35,8.03,32.06,18.48,46.11,2.92-7.21,4.45-14.42,6.05-21.58,2.43-10.88,4.71-21.79,7.07-32.69,.17-.81,.35-1.63,.62-2.41,.78-2.26,2.2-3.89,4.79-3.37,2.61,.52,3.38,2.69,3.12,4.99-.75,6.62-1.76,13.2-2.55,19.81-2.01,16.86-3.7,33.76-8,50.25-.56,2.16-.07,3.82,1.15,5.58,3.26,4.69,7.11,8.78,11.46,12.48,8.53,7.26,16.06,15.48,22.93,24.31,.99,1.28,2.59,2.64,1.15,4.33-1.25,1.48-2.86,.08-4.07-.43-13.32-5.61-27.13-10.41-37.43-21.31-1.94-2.05-2.52-.99-3.24,.98-6.09,16.75-17.7,29.57-29.97,41.91-1,1.01-2,2.91-3.59,1.72-1.54-1.16-.06-2.73,.58-3.98,8.83-17.18,16.97-34.63,22.12-53.35,.86-3.13,.81-5.6-.92-8.43-3.29-5.39-6.11-11.07-8.48-16.95-2.86-7.07-3.86-14.21-3.12-21.95,.82-8.54,.19-17.22,.19-25.83,.55-.06,1.11-.11,1.66-.17Z"/>
        <path class="cls-11" d="M597.1,133.27c18.06,.7,23.43,10.96,13.9,26.58-.78,1.28-1.68,2.48-2.47,3.75-.35,.56-.85,1.21-.81,1.78,.24,3.38,.3,3.48-3.29,4.07-4.75,.78-9.52,1.46-14.3,1.99-2.07,.23-3.4,.51-3.24,3.16,.15,2.48,.81,3.55,3.5,3.47,10.16-.29,20.3,0,30.33,2.02,4.42,.89,8.62,2.39,12.76,4.1,1.02,.42,2.57,.66,2.34,2.1-.26,1.62-1.88,.97-2.9,1-13.15,.38-26.3,.82-39.45,.96-3.5,.04-4.65,.56-3.67,4.38,1.88,7.32,1.64,14.85,1.18,22.35-.08,1.35-.09,2.78-1.71,3.22-1.6,.44-2.46-.74-3.16-1.88-4.14-6.73-5.99-14.11-5.28-21.93,.42-4.61-.73-6.25-5.7-6.5-14.15-.73-28.29-.93-42.45-.78-1.46,.01-3.04,.45-4.31-.69-.77-.7-1.21-1.54-.73-2.65,.66-1.51,1.97-1.54,3.33-1.65,15.41-1.28,30.81-2.61,46.22-3.89,2.31-.19,4.72,.24,4.68-3.44-.04-3.9-2.88-2.41-4.63-2.63-7.45-.94-14.96-.64-22.45-.76-3.46-.05-6.42-.73-3.66-5.26,.24-.39,.54-1.02,.39-1.34-3.18-6.68-.55-12.56,2.31-18.5,.51-1.05,.07-2.55,.07-4.73,4.92,6.87,9.85,2.18,14.57,.82,8.29-2.38,15.92-6.74,24.47-8.42,1.47,.22,2.88,.11,4.16-.72Zm-13.12,27.99c-7.6-1.52-15.16-3.39-22.83-4.43-4.36-.59-1.71,3.82-2.81,5.73-.98,1.69,.51,2.58,2.43,2.3,4.41-.63,8.83-1.19,13.25-1.77,8.97-.37,17.82,.89,26.68,1.94,1.06,.12,2.77,.76,3.1-.56,.37-1.5,.16-3.38-.45-4.82-.51-1.2-2.07-.48-3.14-.2-5.32,1.39-10.74,1.84-16.22,1.81Zm18.8-10.22c.18-2.99-1.99-3.27-4.29-3.18-12.74,.5-25.51-1.59-38.24,.33-1.02,.15-2.97-1.01-2.85,1.3,.11,2.01,1.62,1.8,3.24,1.82,13.23,.19,26.54-1.66,39.64,1.67,1.41,.36,2.76,.35,2.49-1.94Z"/>
        <path class="cls-11" d="M914.47,191.57c.02,20.63-1.78,39.92-9.21,58.31-3.6,8.91-8.86,16.73-15.27,23.81-.92,1.01-1.84,3.19-3.4,2.19-1.59-1.01-.44-2.91,.15-4.45,4.03-10.74,7.07-21.74,9.38-33.01,4.92-23.99,3.91-48.09,1.33-72.11-3.54-33.09-9.43-65.82-16.8-98.28-.44-1.94-.99-3.83,1.22-4.65,2.34-.87,3.08,1.25,3.9,2.89,16.45,33.06,25.13,68.18,27.75,104.89,.51,7.14,.68,14.3,.96,20.41Z"/>
        <path class="cls-11" d="M264.68,230.47c-3,0-6.13-.55-8.97,.11-5.83,1.36-8.16-1.55-10.34-6.3-2.76-6.02-6.16-11.78-9.64-17.43-4.86-7.89-8.39-16.17-9.99-25.36-1.37-7.85-1.69-8.05,5.47-10.1,12.13-3.48,24.19-7.39,36.63-9.59,15.88-2.8,29.39,3.46,41.89,12.3,4.08,2.89,5.99,7.6,6.41,12.58,.83,9.87-1.03,19.21-6.25,27.75-.84,1.38-2.44,2.09-.33,4.33,1.8,1.9-1.33,2.74-2.8,3.45-11.75,5.64-27.25,8.65-42.07,8.25Zm36.54-12.82c-1.92-8.23-1.34-15.54-.81-22.82,.37-5.11-1.23-8.53-6.18-10.61-5.2-2.19-10.16-4.93-15.19-7.52-4.55-2.34-9.39-3.45-14.45-3.05-10.42,.82-20.77,2.27-31.3,4.09,.2,.75,.29,1.39,.54,1.97,6,14.21,12.42,28.28,16.01,43.36,.59,2.46,1.63,1.77,3.13,1.33,15.59-4.62,31.03-10.2,48.25-6.75Z"/>
        <path class="cls-11" d="M195.48,159.66c-.49-26.51,4.64-52.29,9.92-78.06,1.8-8.77,3.62-17.54,5.37-26.32,.38-1.89,.67-3.96,3.2-3.38,2.42,.55,1.99,2.59,1.68,4.49-3.73,22.98-7.14,46.01-8.08,69.3-.71,17.53,1.27,34.93,3.53,52.26,2.3,17.65,3.68,35.44,7.33,52.9,2.95,14.13,9.05,26.72,18.88,37.4,.9,.98,1.73,2.02,2.57,3.06,.72,.88,1.76,1.75,.57,2.98-1.16,1.2-2.23,.17-3.08-.39-6.7-4.38-13.07-9.14-18.17-15.44-11.29-13.92-15.99-30.47-19.14-47.62-3.1-16.91-4.22-34.02-4.58-51.18Z"/>
        <path class="cls-11" d="M465.29,187.42c.76-36.13,2.72-72.15,8.38-107.89,.36-2.29,.39-4.64,.8-6.93,.31-1.75,.6-3.93,3.15-3.69,2.46,.24,2.61,2.15,2.43,4.12-.04,.5,.02,1.01-.07,1.49-.62,3.25,.85,4.3,3.81,3.46,4.56-1.3,9.23-.96,13.87-1.1,4.53-.14,8.45,1.41,12.12,3.91,9.53,6.49,10.93,13.74,3.66,22.61-3.55,4.34-3.61,8.14-.14,11.99,8.71,9.68,8.91,21.02,6.88,32.88-.89,5.19-3.77,8.78-8.61,10.79-4.28,1.78-8.59,3.5-12.87,5.28-.88,.37-1.74,1.2-2.59,.03-.68-.94-.41-1.94,.12-2.81,1.8-2.98,3.74-5.88,5.47-8.9,1.81-3.16,3.27-6.36,3.82-10.15,1.04-7.14-.18-13.17-4.68-19.1-6.85-9.03-7.32-18.61-.15-28.04,1.91-2.51-1.03-9.06-4.88-10.97-4.39-2.17-9.27-2.44-14.01-3.2-2.49-.4-2.52,1.2-2.64,3.03-.93,14.6-2,29.2-2.91,43.81-1.51,24.39-2.79,48.8-6,73.05-.57,4.27-.87,8.58-1.26,12.88-.12,1.32,.1,3.01-1.66,3.14-2.23,.16-2.03-1.8-2.04-3.23-.05-8.82-.02-17.64-.02-26.46Z"/>
        <path class="cls-11" d="M593,133.14c-17.42,1.11-34.44-2.25-51.55-4.67-1.72-.24-4.23,.13-3.92-2.56,.29-2.54,2.76-1.75,4.47-1.87,1.16-.09,2.46,.26,3.47-.14,5.04-2.02,12.83,2.1,15.16-3.5,1.94-4.66,2.49-10.51,3.91-15.76,.72-2.65-1.09-2.21-2.48-2.33-7.78-.72-15.56-1.44-23.35-2.09-2.21-.18-4.79-.05-4.62-3.12,.16-2.92,2.72-2.85,4.93-2.9,10.49-.24,20.87-1.69,31.29-2.72,2.96-.29,3.97-1.18,3.79-4.2-.33-5.48-.28-10.98-.32-16.47-.02-2.43,.15-5.1,3.52-4.77,3.29,.32,3.18,3.07,2.68,5.38-1.1,5.16-2.49,10.27-3.72,15.4-.67,2.79-.23,4.01,3.34,3.88,11.18-.44,22.23,.98,33.12,3.56,1.39,.33,3.24,.48,3.25,2.43,0,1.92-1.78,2.14-3.21,2.48-3.07,.73-6.13,1.88-9.23,1.97-4.22,.12-5.97,2.81-6.81,5.96-1.05,3.98-1.19,8.2-1.85,12.3-.4,2.49,1.43,1.64,2.5,1.77,5.77,.72,11.55,1.34,17.31,2.09,1.59,.21,3.7,.45,3.7,2.51,0,1.65-1.9,2-3.32,2.52-6.14,2.27-12.65,2.74-18.99,4.02-1.13-.11-2.39-.71-3.07,.84Zm-2.04-29.96c-2.29,0-4.11-.11-5.91,.02-4.58,.33-11.06-2.05-13.26,.92-2.3,3.11-.59,9.2-.63,13.98,0,.17,.01,.33,0,.5-.17,1.82,.46,2.75,2.5,2.68,3.82-.14,7.64-.14,11.46-.12,1.44,0,2.05-.5,2.07-2.01,.08-5.38,2.07-10.34,3.77-15.97Z"/>
        <path class="cls-11" d="M123.18,438.4c-.17,.79-.48,2.25-.79,3.7-8.02,36.76-20.4,71.89-38.17,105.17-10.71,20.06-19.47,41.08-28.24,62.06-.57,1.37-1.18,2.74-1.87,4.05-.46,.87-1.08,1.81-2.3,1.27-.89-.4-.95-1.35-.82-2.16,.15-.97,.48-1.91,.76-2.85,6.51-21.97,13.68-43.74,23.29-64.54,15.4-33.34,26.22-68.26,36.91-103.25,.63-2.07,1.23-4.16,2.06-6.14,1-2.39,2.85-3.69,5.54-3.23,2.33,.4,3.59,2.32,3.64,5.92Z"/>
        <path class="cls-2" d="M798.92,167.21c-8.89-2.03-17.74-4.26-26.68-6.04-7.5-1.49-15.07-2.65-22.66-3.59-3-.37-3.97-1.02-3.22-4.22,1.81-7.77,3.2-15.64,4.85-23.44,.31-1.45,.02-3.6,2.74-3.18,13.95,2.16,28.05,3.53,40.3,11.84,6.43,4.36,10.3,9.08,7.74,17.33-1.12,3.6-1.3,7.49-1.91,11.25-.38,.02-.77,.04-1.15,.06Z"/>
        <path class="cls-11" d="M824.01,251.39c-13.61,.02-24.75-9-26.58-21.59-.69-4.7,.56-8.87,3.62-12.53,1.51-1.81,4.09-2.71,4.15-5.81,.03-1.54,2.05-1.42,3.35-1.25,7.73,1.03,15.59,1.17,23.17,3.17,4.09,1.08,7.6,3.24,10.5,6.42,7.95,8.71,6.63,20.61-3.13,27.19-4.53,3.06-9.57,4.59-15.08,4.41Zm-16.18-26.78c-.03,6.91,2.68,11.82,8.11,14.89,5.76,3.26,11.48,2.72,17.03-.35,4.88-2.7,5.61-6.34,2.88-11.19-4.12-7.32-11.35-9.08-18.65-10.83-7.41-1.78-9.34-.25-9.37,7.48Z"/>
        <path class="cls-11" d="M304.72,86.1c-1.9,2.82-3.72,2.04-5.21,2.03-8.5-.03-16.85,1.56-25.28,2.18-3.25,.24-2.99,2.28-3.05,4.53-.51,19.32,.21,38.62,.81,57.92,.05,1.76,0,3.53,0,5.29-.5,.06-1,.11-1.5,.17-.48-3.52-1.36-7.05-1.36-10.57,.02-15.31-1.62-30.53-2.27-45.81q-.43-10.12-10.48-9.39c-5.31,.4-10.61,.95-15.92,1.35-5,.38-8.3-1.68-8.06-5.22,.31-4.55,3.59-5.6,7.45-5.47,7.32,.24,14.64,.47,21.95,.91,2.76,.17,3.49-.75,3.07-3.38-.57-3.61-.88-7.26-1.26-10.9-.29-2.82-.2-5.8,3.42-6.04,3.99-.26,4.24,2.9,4.23,5.89,0,3.83,.16,7.67-.08,11.49-.2,3.13,1.02,3.99,4.01,3.98,9.62-.03,19.17,1.53,29.52,1.03Z"/>
        <path class="cls-12" d="M321.22,108.11c-2.06,.23-3.74-.44-4.18-2.58-.48-2.33,.72-3.86,3.01-4.4,15.35-3.65,30.4-8.65,46.26-9.94,5.62-.46,11.22-1.18,16.82-1.83,1.41-.16,2.87-.25,3.41,1.25,.51,1.42-.85,2.06-1.91,2.42-20.65,7.06-41.82,11.97-63.41,15.1Z"/>
        <path class="cls-10" d="M303.93,121.03c7.66-14.06,13.15-28.69,19.93-42.72,1.01-2.09,2.05-4.17,3.13-6.22,1.06-2.01,2.73-3.26,4.85-1.88,2.18,1.42,1.56,3.61,.17,5.22-10.86,12.54-17.09,27.71-24.34,42.32-.62,1.26-.72,3.43-3.74,3.28Z"/>
        <path class="cls-6" d="M593,133.14c.67-1.55,1.94-.95,3.07-.84,.35,.32,.69,.65,1.04,.97-1.28,.84-2.7,.94-4.16,.72-.07-.29-.05-.57,.06-.85Z"/>
        <path class="cls-5" d="M423.23,891.86c-28.21,1.36-54.97,1.15-81.55-2.79-19.44-2.88-38.09-8.09-54.02-20.42-12.31-9.53-19.51-22.57-25.13-36.62-11.75-29.38-13.86-59.99-11.85-91.26,2.37-36.98,20.13-66.7,43.19-94,13.46-15.93,29.63-29.27,43.68-44.65,16.57-18.15,29.67-38.46,37.02-62.15,4.11-13.25,5.87-26.88,7.62-40.61,3.65-28.51-4.48-54.39-16.42-79.49-4.74-9.95-6.86-19.95-4.7-30.91,2.06-10.47,9.34-16.23,17.93-20.68,9.09-4.71,19.21-6.49,29.08-8.79,18.45-4.29,36.9-8.61,55.82-10.62,29.51-3.14,59.04-5.4,88.68-2.78,38.58,3.42,76.44,11.07,113.07,23.43,30.66,10.34,58.89,26.05,82.46,48.63,28.92,27.7,46.43,61.7,52.9,101.33,3.73,22.84,5.95,45.82,7.08,68.93,1.14,23.26,3.22,46.51,3.51,69.77,.37,29.5-6.55,57.29-22.56,82.62-13.5,21.37-30.71,39.22-49.53,55.82-15.7,13.85-32.85,25.51-51.11,35.62-1.89,1.05-3.8,2.08-5.72,3.08-.57,.3-1.21,.48-2.27,.89-.05-2.91,1.53-4.91,2.51-7.01,9.78-20.98,13.25-43.5,15.98-66.16,2.16-18,4.95-35.91,6.48-53.99,1.07-12.65,1.05-25.31,.16-37.93-.29-4.1,.73-4.82,4.4-4.82,21.14,.06,42.28-.05,63.41-.18,1.61-.01,4.08,1.08,4.55-1.62,.45-2.58-2.16-2.64-3.68-3.27-22.15-9.17-45.13-14.65-69.11-16.25-31.2-2.09-62.5-2.83-93.54-6.92-19.97-2.63-38.2-9.45-54.78-21.27-9.58-6.83-11.21-15.45-9.48-25.78,.77-4.61,3.65-9.17-.86-13.54-.6-.58,.07-2.53,.21-3.83,1.44-13.19-.13-26.26-1.77-39.3-.32-2.54-2.17-4.21-4.91-4.06-2.53,.14-3.87,1.8-4.03,4.28-1.24,19.29-8.59,36.79-15.71,54.39-10.18,25.16-29.13,38.89-55.46,43.26-15.61,2.59-31.16,1.22-46.67-.82-16.48-2.17-33.13-2.95-49.47-6.22-8.01-1.6-15.74-4.21-23.55-6.52-1.75-.52-3.49-1.13-5.28-1.45-1.23-.22-2.8-.7-3.57,.83-.75,1.49,.31,2.53,1.38,3.38,3.9,3.12,7.72,6.35,11.77,9.26,13.06,9.39,26.91,17.28,42.54,21.59,3.11,.86,4.08,2.41,4.16,5.59,.43,16.18-3.32,31.69-7.23,47.18-6.84,27.15-6.89,54.7-5.13,82.37,.81,12.79,1.4,25.59,2.27,38.38,.73,10.81,2.46,21.47,5.75,31.84,5,15.73,14.28,27.69,31.5,34.22Zm62.92-368.51c26.53,.13,41.88-4.83,60.12-19.39,4.27-3.41,7.86-7.68,12.05-11.2,2.44-2.05,4.08-4.35,4.71-7.37,.54-2.64,1.71-5.02,2.65-7.5,9.73-25.62,9.82-50.55-6.77-73.6-13.47-18.71-32.75-28.24-54.99-32.13-18.32-3.2-35.38,.19-50.79,10.93-4.58,3.19-7.35,8.22-11.54,11.64-10.13,8.27-17.36,18.72-24.1,29.66-21.87,35.46-1.44,75.97,26.08,89.78,13.93,6.99,28.64,9.35,42.58,9.17Zm238.91-69.47c.23-15.68-2.61-26.03-9.02-35.13-15.43-21.92-36.54-34.82-63.26-37.26-16.51-1.5-32.24,2.06-45.48,12.87-18.98,15.49-26.86,36.54-27.97,60.14-1.03,21.9,9.57,38.85,25.78,52.71,5.65,4.83,12.84,7.01,18.96,10.9,12.97,8.24,26.69,10.7,41.5,7.39,16.88-3.77,29.53-14.19,40.43-26.89,12.11-14.1,18.57-30.57,19.07-44.73Z"/>
        <path class="cls-4" d="M531.55,617.51c11.58,24.3,33.35,34.31,57.48,40.58,17.34,4.5,35.28,4.88,53.07,5.81,16.3,.85,32.62,1.43,48.94,1.83,3.98,.1,5.36,.82,5.03,5.26-1.6,21.36-7.19,41.95-11.6,62.77-7.37,34.73-13.44,69.66-15.58,105.16-.19,3.16-1.74,4.22-4.17,5.32-24.58,11.12-50.47,18-76.71,23.64-38.42,8.26-76.88,16.38-116,20.69-12.24,1.35-24.55,2.14-36.83,3.14-1.23,.1-2.43,.48-3.55-.93-13.42-16.89-22.62-35.52-24.86-57.31-1.62-15.75-2.32-31.57-3.57-47.34-2.34-29.62-2.76-59.2,.52-88.82,1.35-12.25,.93-24.61-1.38-36.83-1.05-5.52-.85-5.49,4.79-4.63,22.35,3.41,44.71,5,67-.5,22.62-5.59,41.29-17.31,55.5-35.91,.4-.53,.81-1.06,1.26-1.55,.2-.21,.52-.29,.67-.37Z"/>
        <path class="cls-9" d="M602.78,151.04c.27,2.29-1.08,2.3-2.49,1.94-13.1-3.33-26.41-1.48-39.64-1.67-1.63-.02-3.14,.19-3.24-1.82-.12-2.31,1.83-1.15,2.85-1.3,12.73-1.91,25.49,.18,38.24-.33,2.3-.09,4.47,.19,4.29,3.18Z"/>
        <path class="cls-8" d="M574.01,163.09c-4.42,.59-8.84,1.15-13.25,1.77-1.92,.27-3.41-.61-2.43-2.3,1.1-1.91-1.55-6.32,2.81-5.73,7.67,1.04,15.23,2.91,22.83,4.43-3,2.38-6.97-.54-9.97,1.83Z"/>
        <path class="cls-7" d="M574.01,163.09c3-2.37,6.97,.54,9.97-1.83,5.48,.04,10.9-.42,16.22-1.81,1.06-.28,2.63-1,3.14,.2,.61,1.44,.82,3.31,.45,4.82-.32,1.32-2.04,.69-3.1,.56-8.87-1.04-17.72-2.3-26.68-1.94Z"/>
        <path class="cls-2" d="M301.21,217.64c-17.22-3.45-32.66,2.14-48.25,6.75-1.49,.44-2.54,1.13-3.13-1.33-3.59-15.09-10.01-29.15-16.01-43.36-.24-.58-.34-1.22-.54-1.97,10.52-1.82,20.87-3.27,31.3-4.09,5.06-.4,9.9,.71,14.45,3.05,5.02,2.59,9.99,5.33,15.19,7.52,4.95,2.08,6.55,5.5,6.18,10.61-.53,7.28-1.11,14.59,.81,22.82Z"/>
        <path class="cls-3" d="M590.95,103.19c-1.7,5.63-3.69,10.59-3.77,15.97-.02,1.52-.63,2.02-2.07,2.01-3.82-.02-7.64-.02-11.46,.12-2.03,.08-2.66-.85-2.5-2.68,.01-.16,0-.33,0-.5,.04-4.79-1.68-10.87,.63-13.98,2.2-2.97,8.68-.6,13.26-.92,1.8-.13,3.62-.02,5.91-.02Z"/>
        <path class="cls-11" d="M486.15,523.36c-13.94,.18-28.65-2.17-42.58-9.17-27.52-13.81-47.96-54.33-26.08-89.78,6.75-10.94,13.98-21.39,24.1-29.66,4.19-3.42,6.96-8.45,11.54-11.64,15.42-10.74,32.47-14.14,50.79-10.93,22.24,3.89,41.53,13.43,54.99,32.13,16.59,23.04,16.5,47.97,6.77,73.6-.94,2.48-2.11,4.86-2.65,7.5-.62,3.02-2.27,5.32-4.71,7.37-4.2,3.52-7.78,7.79-12.05,11.2-18.24,14.56-33.59,19.52-60.12,19.39Zm-61.24-76.75c1.47-.95,2.21-1.34,2.84-1.85,11.79-9.43,24.66-8.67,37.05-2.39,12.72,6.45,18.77,18.56,21.99,31.9,2.81,11.63,2.72,23.04-6.41,32.9,7.99,.61,15.49,.45,22.82-1.08,20.97-4.38,38.43-14.18,46.05-35.36,7-19.43,7.06-39.11-7.37-55.65-16.75-19.2-38.57-26.45-63.8-23.34-4.14,.51-8.17,1.68-11.91,3.57-21.13,10.66-34.1,27.96-41.25,51.31Z"/>
        <path class="cls-11" d="M725.06,453.89c-.5,14.16-6.96,30.63-19.07,44.73-10.91,12.7-23.55,23.12-40.43,26.89-14.81,3.31-28.53,.85-41.5-7.39-6.12-3.89-13.3-6.07-18.96-10.9-16.21-13.86-26.81-30.81-25.78-52.71,1.11-23.6,8.99-44.65,27.97-60.14,13.24-10.8,28.97-14.37,45.48-12.87,26.72,2.44,47.83,15.34,63.26,37.26,6.41,9.1,9.25,19.45,9.02,35.13Zm-21.53,11.59c-7.81,4.05-15.74,6.48-24.46,4.04-15.85-4.43-28.45-24.34-26.66-41.92,.86-8.42,3.83-16.17,7.35-23.68,1.93-4.14,.33-4.95-3.26-5.55-22.97-3.86-41.83,5.64-51.57,26.86-13.85,30.16-7.83,54.73,17.91,74.08,6.92,5.2,15.76,5.93,23.92,7.83,9.66,2.24,18.85,.02,27.26-5.2,12.49-7.74,22.1-18.08,28.16-31.56,.65-1.45,1.69-2.84,1.34-4.89Z"/>
        <path class="cls-2" d="M424.92,446.61c7.14-23.35,20.11-40.65,41.25-51.31,3.75-1.89,7.78-3.06,11.91-3.57,25.23-3.11,47.05,4.14,63.8,23.34,14.43,16.54,14.37,36.22,7.37,55.65-7.62,21.18-25.08,30.97-46.05,35.36-7.33,1.53-14.83,1.69-22.82,1.08,9.14-9.85,9.22-21.27,6.41-32.9-3.22-13.34-9.26-25.45-21.99-31.9-12.39-6.28-25.26-7.04-37.05,2.39-.64,.51-1.37,.9-2.84,1.85Z"/>
        <path class="cls-2" d="M703.53,465.48c.35,2.06-.69,3.45-1.34,4.89-6.06,13.48-15.67,23.81-28.16,31.56-8.42,5.22-17.61,7.44-27.26,5.2-8.17-1.89-17.01-2.62-23.92-7.83-25.74-19.36-31.75-43.93-17.91-74.08,9.75-21.22,28.6-30.73,51.57-26.86,3.58,.6,5.19,1.42,3.26,5.55-3.52,7.52-6.49,15.26-7.35,23.68-1.79,17.59,10.81,37.5,26.66,41.92,8.72,2.44,16.66,0,24.46-4.04Z"/>
      </g>
      <path class="cls-2" d="M807.6,224.59c-.03,6.91,2.68,11.82,8.11,14.89,5.76,3.26,11.48,2.72,17.03-.35,4.88-2.7,5.61-6.34,2.88-11.19-4.12-7.32-11.35-9.08-18.65-10.83-7.41-1.78-9.34-.25-9.37,7.48Z"/>
    </g>
  </g>
</svg>