<?xml version="1.0" encoding="UTF-8"?>
<svg id="_レイヤー_2" data-name="レイヤー 2" xmlns="http://www.w3.org/2000/svg" viewBox="0 0 361.073 366.676">
  <defs>
    <style>
      .cls-1 {
        fill: #fdd86f;
      }

      .cls-2 {
        fill: #fff;
      }

      .cls-3 {
        fill: #7ecef4;
      }

      .cls-4 {
        fill: #00a0e9;
      }
    </style>
  </defs>
  <g id="_レイヤー_1-2" data-name="レイヤー 1">
    <g>
      <path class="cls-4" d="M356.243,156.675c-10.815-26.728-33.093-44.603-33.093-44.603L10.332,256.452c1.4,4.391,7.793,18.953,10.485,24.289,10.965,21.73,31.386,43.984,55.824,44.378,5.078,.082,10.166-.533,15.205-1.834,2.145,4.725,5.533,10.913,10.596,17.109,9.46,11.577,26.78,25.529,55.565,26.247,.336,.008,.665,.015,.998,.021,33.623,.542,52.41-14.416,62.25-27.059,4.432-5.695,7.469-11.436,9.514-16.246,6.939,5.994,23.679,13.268,36.872,14.356,28.738,2.37,49.912-14.956,56.884-27.257,20.151-35.552,.208-65.395,.208-65.395,4.29-2.056,6.06-3.313,10.72-6.758,10.127-7.485,18.378-19.657,22.138-30.494,4.985-14.367,4.691-36.212-1.347-51.134Z"/>
      <g>
        <path class="cls-2" d="M149.556,335.83c-.886,0-1.779-.012-2.688-.034-27.412-.685-43.86-13.915-52.831-24.893-6.002-7.346-9.509-14.621-11.338-19.206-5.422,1.715-10.918,2.582-16.395,2.582-22.837,0-43.838-15.519-52.257-38.615-8.826-24.214-2.138-49.734,17.853-69.502-17.053-8.857-27.531-26.014-27.222-45.485,.284-17.854,10.509-40.042,38.024-50.481-5.545-31.798,17.07-54.489,35.818-60.703,6.105-2.023,12.566-3.049,19.201-3.049,13.18,0,24.155,3.995,29.961,6.631,3.181-5.715,7.296-11.069,11.874-15.4,7.106-6.724,15.261-10.915,23.582-12.12,4.033-.585,7.928-.881,11.578-.881,33.348,0,42.444,23.77,47.311,36.691,11.885-6.672,24.793-10.174,37.644-10.174,15.458,0,29.839,4.946,41.587,14.304,14.401,11.473,21.708,27.769,21.129,47.128-.265,8.886-2.131,16.461-3.559,21.05,19.772,8.329,32.323,31.958,30.317,58.323-1.826,23.994-16.592,51.127-52.179,58.645,8.472,14.123,7.951,27.279,5.737,36.301-3.495,14.241-13.459,26.912-25.385,32.282-7.069,3.183-14.469,4.797-21.994,4.797h-.005c-16.71,0-30.325-7.835-37.629-13.141-1.772,4.998-4.915,11.962-10.261,18.934-9.102,11.868-26.531,26.017-57.874,26.018Z"/>
        <path class="cls-4" d="M174.716,9.345c34.996,0,40.32,28.685,45.013,38.868,12.856-8.365,26.696-12.35,39.94-12.35,14.224,0,27.762,4.592,38.677,13.287,32.294,25.725,14.52,67.373,14.52,67.373,44.016,12.46,47.909,101.771-23.918,110.721,22.452,28.55,4.425,59.625-13.548,67.718-6.992,3.148-13.763,4.385-20.076,4.385-23.116,0-40.176-16.564-40.176-16.564,0,0-8.603,48.375-65.591,48.375-.847,0-1.703-.011-2.571-.032-49.635-1.239-61.433-45.428-61.433-45.428-6.554,2.681-13.037,3.91-19.247,3.91-44.564,0-75.588-63.101-25.928-104.85C-1.542,169.905-2.928,109.533,48.121,93.254c-7.977-32.299,15.487-53.897,31.87-59.326,6.137-2.034,12.142-2.812,17.732-2.812,18.186-.001,32.015,8.228,32.015,8.228,5.602-12.207,17.789-26.807,34.07-29.166,3.925-.569,7.554-.833,10.908-.833m0-9.345c-3.873,0-7.993,.312-12.248,.929-9.28,1.345-18.313,5.961-26.123,13.351-3.94,3.728-7.56,8.159-10.599,12.927-6.649-2.587-16.572-5.436-28.02-5.436-7.142,0-14.097,1.106-20.676,3.286-19.646,6.51-43.207,29.635-39.492,62.205-10.611,4.658-19.474,11.455-25.922,19.937C4.221,116.954,.2,128.505,.007,140.602c-.305,19.196,8.971,36.329,24.452,46.597-7.981,8.989-13.499,18.963-16.457,29.779-3.653,13.361-3.081,27.291,1.655,40.284,9.089,24.935,31.854,41.688,56.647,41.688,4.589,0,9.183-.557,13.738-1.663,2.182,4.679,5.516,10.624,10.376,16.571,9.59,11.736,27.148,25.879,56.333,26.608,.936,.023,1.88,.035,2.805,.035,33.249,0,51.84-15.143,61.582-27.845,3.922-5.114,6.74-10.252,8.738-14.717,8.346,5.155,20.784,10.753,35.448,10.753,8.19,0,16.235-1.753,23.913-5.209,13.187-5.937,24.18-19.844,28.005-35.428,2.84-11.573,1.613-23.401-3.413-34.341,13.182-3.834,24.388-10.683,32.876-20.183,9.987-11.177,15.9-25.417,17.099-41.182,1.066-14.01-1.828-28.091-8.148-39.649-5.212-9.531-12.58-16.949-21.263-21.556,1.241-4.81,2.45-11.207,2.665-18.382,.624-20.888-7.291-38.497-22.889-50.921-12.584-10.024-27.972-15.323-44.5-15.323-11.955,0-23.936,2.841-35.178,8.289-2.44-5.974-5.981-13.22-11.813-19.532C203.313,5.139,190.541,0,174.716,0h0Z"/>
      </g>
      <g>
        <g>
          <path class="cls-1" d="M110.015,135.114c-5.846,0-11.742-2.355-14.818-7.452-2.897,2.484-6.789,4.689-11.472,4.689,0,0,0,0,0,0-3.676,0-7.223-1.371-10.543-4.076-4.723-3.849-7.23-9.814-6.542-15.571,.414-3.46,1.873-6.581,4.242-9.193-2.343-1.481-4.499-3.518-5.983-6.062-2.767-4.742-2.655-10.36,.315-15.819,3.114-5.724,8.287-9.007,14.193-9.007,2.545,0,5.098,.593,7.503,1.706,.652-3.173,1.994-6.042,3.966-8.355,3.032-3.557,7.342-5.517,12.138-5.517,1.289,0,2.623,.142,3.962,.42,6.493,1.351,9.568,5.259,11.004,8.299,1.682,3.561,1.923,7.535,1.39,11.217,.738-.09,1.473-.137,2.195-.137,7.24,0,12.682,4.419,14.931,12.123,1.389,4.758,.469,9.625-2.59,13.705-2.094,2.791-5.016,4.962-8.157,6.188,1.453,3.424,1.815,7.154,.948,10.713-1.284,5.271-5.106,9.345-10.487,11.175-1.833,.624-3.977,.954-6.196,.954Z"/>
          <path class="cls-4" d="M103.015,64.937c.97,0,1.99,.105,3.051,.326,10.966,2.28,10.395,14.337,6.613,21.547-.133,.253,.099,.538,.347,.538,.061,0,.123-.017,.181-.057,1.963-1.332,5.122-2.557,8.36-2.556,4.258,0,8.652,2.119,10.631,8.899,2.482,8.503-5.812,15.277-12.109,15.277-.404,0-.8-.028-1.184-.085-.02-.003-.039-.004-.057-.004-.317,0-.486,.405-.251,.649,6.551,6.826,5.173,17.386-3.828,20.449-1.306,.444-2.972,.715-4.752,.715-5.659,0-12.47-2.737-12.518-11.34-.001-.24-.19-.389-.382-.389-.115,0-.231,.053-.308,.173-1.701,2.612-6.646,8.793-13.083,8.793-2.394,0-4.997-.856-7.713-3.07-6.857-5.587-7.584-16.843,3.618-22.194,.315-.15,.316-.709-.031-.715-5.229-.086-16.599-6.817-10.449-18.124,2.552-4.691,6.348-6.668,10.258-6.668,4.004,0,8.128,2.074,11.153,5.433,.08,.088,.178,.127,.274,.127,.211,0,.41-.188,.368-.448-1.494-9.307,3.364-17.278,11.812-17.277m-.002-8.958c-6.127,0-11.648,2.517-15.544,7.089-1.416,1.661-2.571,3.542-3.45,5.583-1.521-.334-3.066-.507-4.611-.507-7.598,0-14.206,4.135-18.128,11.346-3.747,6.888-3.836,14.068-.249,20.217,1.031,1.767,2.307,3.333,3.734,4.691-1.363,2.389-2.241,5.008-2.572,7.774-.869,7.266,2.258,14.768,8.16,19.577,4.139,3.373,8.638,5.083,13.372,5.083,4.104,0,7.678-1.291,10.661-3.082,3.799,3.689,9.229,5.844,15.63,5.844,2.704,0,5.345-.412,7.638-1.192,6.859-2.334,11.742-7.567,13.397-14.356,.766-3.143,.78-6.383,.102-9.511,2.429-1.506,4.616-3.466,6.339-5.763,3.925-5.235,5.099-11.502,3.306-17.647-2.543-8.712-8.689-14.241-16.698-15.198-.121-2.916-.746-5.866-2.068-8.663-2.645-5.599-7.668-9.424-14.142-10.77-1.638-.341-3.278-.513-4.873-.513h-.003Z"/>
        </g>
        <g>
          <path class="cls-3" d="M106.895,274.318c-9.389,0-17.533-3.681-22.932-10.365-4.609-5.706-6.808-13.977-5.739-21.585,.665-4.733,2.827-11.217,9.09-16.997-3.503-4.184-8.004-11.265-7.643-19.725,.254-5.94,2.838-11.426,7.696-16.357-5.198-4.604-8.278-10.292-8.625-16.136-.64-10.781,4.598-20.454,13.344-24.645,3.257-1.562,6.779-2.353,10.47-2.353,8.438,0,16.234,4.132,20.349,10.784,4.603,7.442,2.634,18.423-2.277,25.745,6.174,3.936,10.245,10.605,11.003,18.457,.728,7.531-2.995,14.105-7.716,18.752,7.551,6.992,11.726,15.609,11.878,24.723,.178,10.702-4.145,20.026-11.563,24.941-4.496,2.98-10.977,4.76-17.336,4.76Z"/>
          <path class="cls-4" d="M102.556,150.635c6.706,0,13.208,3.275,16.539,8.662,4.323,6.989,1.018,19.077-5.29,24.455-.235,.2-.169,.578,.119,.673,6.599,2.188,12.373,8.089,13.249,17.149,.749,7.756-4.794,14.62-10.307,18.323-.051-.037-.091-.051-.121-.051-.078,0-.079,.097,.002,.097,.029,0,.068-.012,.119-.046,9.181,6.685,14.294,15.511,14.449,24.796,.143,8.571-2.967,16.764-9.558,21.133-3.55,2.353-9.043,4.013-14.862,4.013-6.93,0-14.322-2.355-19.447-8.701-6.526-8.08-8.709-24.642,6.107-35.049,.192-.134,.193-.433,.022-.593-2.671-2.487-20.121-20.028,.457-36.145,.198-.155,.219-.48,.008-.616-6.9-4.454-10.496-10.269-10.828-15.847-.583-9.828,4.329-17.235,10.808-20.34,2.725-1.306,5.649-1.912,8.534-1.912m0-8.958h0c-4.366,0-8.54,.939-12.406,2.792-10.394,4.981-16.627,16.344-15.879,28.949,.341,5.739,2.804,11.302,6.995,16.083-4.557,5.933-5.887,11.677-6.069,15.956-.338,7.924,2.889,14.719,6.23,19.556-5.057,5.851-6.979,12.032-7.639,16.733-1.254,8.928,1.247,18.282,6.69,25.021,6.266,7.758,15.648,12.03,26.417,12.03,7.312,0,14.532-2.006,19.811-5.505,8.699-5.765,13.771-16.512,13.567-28.75-.151-9.031-3.719-17.583-10.225-24.81,4.013-5.121,6.754-11.657,6.043-19.022-.745-7.709-4.212-14.46-9.577-19.195,1.142-2.294,2.041-4.771,2.645-7.337,1.719-7.309,.852-14.268-2.443-19.595-4.924-7.962-14.181-12.908-24.158-12.908h0Z"/>
        </g>
        <g>
          <path class="cls-3" d="M189.637,272.423c-4.7,0-9.491-.93-14.241-2.766-12.662-4.892-19.288-18.055-16.112-32.011,1.245-5.471,4.648-11.438,9.562-16.896-4.537-3.506-7.527-8.767-8.143-14.688-.653-6.282,1.438-12.368,5.728-17.174-5.165-3.31-8.374-8.24-9.048-14.147-.768-6.721,2.048-13.59,7.387-18.676-2.484-2.151-4.771-4.784-5.788-6.9-2.68-5.575-3.849-13.198,3.258-20.436-4.82-2.536-9.296-6.955-11.786-12.083-3.94-8.114-2.827-16.757,3.136-24.336,4.829-6.139,11.388-9.383,18.966-9.383,5.812,0,13.239,2.41,18.262,6.33,1.699-2.158,4.107-4.434,7.283-5.659,2.919-1.126,5.791-1.696,8.533-1.696,6.506,0,11.568,3.247,14.865,7.067,1.496-1.306,3.156-2.573,4.701-3.357,3.815-1.937,7.719-2.918,11.605-2.918,4.96,0,9.516,1.618,13.241,4.641,4.215-4.881,10.928-8.979,19.912-8.979,2.483,0,5.065,.315,7.674,.938,10.214,2.437,17.576,12.213,18.319,24.327,.742,12.084-5.567,22.422-16.072,26.337-2.893,1.078-5.869,1.625-8.845,1.625-7.622,0-14.475-3.724-18.482-7.757-3.287,2.716-8.472,5.655-15.516,5.655-.691,0-1.397-.029-2.098-.087-4.544-.375-8.838-2.738-12.202-6.573-3.502,3.399-8.626,5.31-14.681,5.31-.664,0-1.333-.023-2.006-.071,1.546,4.006,2.087,8.508,1.355,12.881-.782,4.668-2.982,8.517-6.23,11.155,2.241,2.052,3.917,4.5,4.856,7.179,.178,.508,.329,1.018,.451,1.529,1.934-.785,4.099-1.234,6.636-1.271l.48-.004c5.951,0,10.546,1.697,13.733,5.061,3.459-3.148,7.982-4.877,13.043-4.877,.24,0,.481,.005,.724,.013,5.826,.191,9.964,2.94,12.689,5.74,2.789-3.459,7.239-7.346,13.825-8.911,2.162-.513,4.399-.773,6.648-.773,11.513,0,21.542,6.561,25.552,16.713,2.88,7.294,2.518,15.89-.947,22.434-3.174,5.996-8.643,10.017-15.814,11.627-2.508,.563-4.938,.85-7.223,.85-6.563,0-12.049-2.312-16.164-6.755-2.637,3.281-6.585,5.754-13.271,6.23-.328,.023-.658,.035-.986,.035-4.42,0-8.807-2.064-12.474-5.729-3.543,4.398-9.52,7.066-16.617,7.066-.955,0-1.84-.027-2.667-.083,.516,2.582,.506,5.172-.062,7.665-.856,3.757-2.913,7-5.959,9.5,4.237,4.263,7.302,10.091,8.191,14.669,1.617,8.321-.628,19.887-8.046,25.893-5.276,4.271-11.893,6.528-19.134,6.528Z"/>
          <path class="cls-4" d="M270.957,82.835c2.071,0,4.284,.255,6.635,.815,17.668,4.214,21.393,34.777,1.722,42.109-2.539,.946-4.983,1.344-7.281,1.344-9.808,0-16.974-7.228-17.669-9.845-.032-.12-.139-.174-.258-.174-.121,0-.254,.056-.331,.156-1.289,1.668-6.623,7.761-15.74,7.761-.562,0-1.138-.023-1.728-.072-3.716-.307-8.807-2.756-12.219-9.602-.073-.146-.212-.219-.35-.219-.143,0-.285,.08-.344,.239-2.119,5.636-7.839,8.302-14.339,8.302-4.168,0-8.656-1.097-12.72-3.21-.052-.027-.105-.039-.157-.039-.321,0-.61,.444-.301,.624,10.74,6.237,12.289,27.345-2.232,30.201-.364,.072-.392,.59-.048,.729,7.648,3.093,12.37,10.44,8.313,17.661-.16,.286,.078,.599,.33,.599,.082,0,.166-.033,.238-.111,3.832-4.153,6.805-6.023,11.703-6.095,.139-.002,.277-.003,.414-.003,6.634,0,10.896,2.387,13.013,7.782,.061,.155,.198,.231,.338,.231,.132,0,.267-.069,.343-.206,2.63-4.776,7.359-7.623,13.085-7.623,.191,0,.383,.003,.576,.01,7.81,.258,11.716,6.7,12.734,8.679,.072,.141,.224,.222,.365,.222,.112,0,.218-.052,.272-.166,1.431-3.051,5.8-9.999,14.326-12.024,1.84-.437,3.728-.653,5.613-.653,8.935,0,17.817,4.841,21.386,13.879,3.837,9.715,1.45,24.67-13.577,28.045-2.031,.456-4.141,.74-6.243,.74-6.153,0-12.248-2.434-16.168-10.119-.067-.131-.192-.194-.318-.194-.145,0-.293,.082-.359,.238-1.944,4.586-4.456,8.96-12.906,9.562-.222,.016-.446,.024-.668,.024-4.918,0-9.816-3.816-12.97-9.233-.074-.127-.198-.186-.321-.186-.172,0-.343,.115-.379,.317-1.259,7.064-8.222,10.44-15.422,10.44-6.413,0-8.48-1.18-11.942-4.642-.038-.038-.08-.054-.121-.054-.149,0-.279,.217-.146,.364,8.235,9.034,7.246,20.597-3.89,25.089-.3,.121-.339,.541-.053,.692,5.576,2.944,10.246,10.429,11.258,15.636,1.296,6.667-.413,16.654-6.468,21.556-4.683,3.791-10.375,5.531-16.316,5.531-4.172,0-8.467-.857-12.626-2.464-9.547-3.689-16.328-13.791-13.359-26.839,1.5-6.59,6.527-13.398,12.136-18.535,.192-.176,.09-.497-.151-.593-12.252-4.87-15.215-22.283-1.58-31.33,.273-.181,.217-.593-.094-.693-16.35-5.28-15.577-23.163-2.001-31.297,.273-.163,.25-.561-.046-.676-2.637-1.035-7.572-5.533-8.899-8.293-6.024-12.53,6.452-18.577,8.805-20.169,.214-.145,.265-.634,.036-.634-.01,0-.021,0-.032,.003-.415,.073-.85,.109-1.301,.109-9.452,0-25.834-15.671-13.417-31.453,4.442-5.646,10.046-7.673,15.445-7.673,8.572,0,16.632,5.106,18.725,8.944,.036,.066,.095,.093,.163,.093,.142,0,.318-.122,.379-.268,.652-1.546,3.321-6.636,7.89-8.398,2.56-.987,4.864-1.397,6.921-1.397,8.631,0,12.937,7.2,13.86,9.098,.067,.137,.198,.21,.332,.21,.096,0,.193-.038,.268-.117,1.125-1.182,4.544-4.652,7.133-5.966,3.195-1.622,6.459-2.433,9.578-2.433,5.242,0,10.078,2.29,13.51,6.875,.073,.097,.21,.175,.323,.175,.065,0,.121-.025,.153-.087,3.022-5.824,9.564-11.3,19.166-11.3m0-8.959c-8.672,0-15.545,3.281-20.461,7.652-3.786-2.17-8.094-3.315-12.691-3.315s-9.184,1.145-13.633,3.404c-.779,.396-1.568,.876-2.351,1.414-3.866-3.234-8.988-5.61-15.188-5.61-3.296,0-6.709,.672-10.144,1.997-2.506,.967-4.612,2.406-6.35,3.989-4.89-2.927-11.082-4.96-17.583-4.96-8.873,0-16.859,3.939-22.486,11.092-6.979,8.87-8.307,19.463-3.645,29.063,2.117,4.358,5.399,8.232,9.198,11.166-3.991,6.392-4.242,13.925-.678,21.336,.775,1.612,2.076,3.406,3.644,5.141-4.3,5.555-6.419,12.322-5.656,19.002,.641,5.617,3.219,10.593,7.296,14.43-3.169,5.014-4.604,10.848-3.98,16.848,.578,5.551,2.881,10.622,6.446,14.598-3.282,4.238-6.417,9.556-7.777,15.529-3.682,16.178,4.076,31.469,18.865,37.183,5.266,2.035,10.6,3.066,15.854,3.066,8.279,0,15.87-2.603,21.952-7.527,9.202-7.449,11.44-20.891,9.625-30.228-.804-4.137-3.104-9.197-6.484-13.608,2.045-2.527,3.481-5.462,4.221-8.711,.313-1.374,.492-2.768,.539-4.171,5.769-.388,10.84-2.318,14.691-5.407,3.749,2.676,7.952,4.141,12.224,4.141,.433,0,.872-.016,1.304-.046,5.886-.42,10.073-2.26,13.09-4.581,4.457,3.348,9.899,5.116,16.026,5.116,2.614,0,5.375-.323,8.206-.958,8.488-1.906,14.986-6.713,18.791-13.902,4.06-7.668,4.502-17.698,1.154-26.174-4.689-11.874-16.354-19.547-29.718-19.547-2.597,0-5.182,.301-7.683,.895-5.651,1.342-9.958,4.122-13.145,7.096-3.104-2.178-7.123-3.878-12.186-4.045-.292-.01-.583-.014-.871-.014-4.707,0-9.118,1.288-12.854,3.643-3.311-2.275-7.809-3.827-13.923-3.827-.18,0-.363,.001-.546,.004-1.354,.02-2.622,.137-3.812,.339-.548-1.094-1.194-2.145-1.931-3.147,2.273-2.911,3.831-6.489,4.514-10.565,.518-3.09,.492-6.238-.007-9.288,4.011-.476,7.607-1.721,10.624-3.634,3.568,2.941,7.742,4.738,12.131,5.101,.822,.068,1.652,.102,2.466,.102,6.389,0,11.486-2.041,15.269-4.439,.536,.414,1.015,.757,1.402,1.023,3.661,2.517,9.639,5.517,17.327,5.517,3.511,0,7.014-.642,10.41-1.908,12.395-4.62,19.844-16.713,18.979-30.809-.865-14.095-9.606-25.511-21.751-28.408-2.949-.703-5.88-1.06-8.714-1.06h0Z"/>
        </g>
      </g>
    </g>
  </g>
</svg>